<?xml version="1.0" encoding="UTF-8"?><svg xmlns="http://www.w3.org/2000/svg" xmlns:xlink="http://www.w3.org/1999/xlink" contentScriptType="text/ecmascript" width="750" zoomAndPan="magnify" contentStyleType="text/css" viewBox="0 0 750 749.999995" height="749.999995" preserveAspectRatio="xMidYMid meet" version="1.0"><path stroke-linecap="butt" transform="matrix(0.75, 0, 0, 0.75, 80.470686, 303.002055)" fill="none" stroke-linejoin="miter" d="M 39.960962 32.637887 L 35.30992 67.637889 L 131.377633 105.768099 L 136.080759 70.393097 L 80.612006 50.163929 L 141.492217 29.934762 L 145.955759 -5.492323 Z M 251.408889 126.002475 L 255.497431 94.085806 L 201.976595 94.085806 L 217.742221 -25.721491 L 180.799511 -25.721491 L 160.945343 126.002475 Z M 323.164101 46.648304 C 326.679726 20.387886 331.523477 3.481635 349.992227 3.481635 L 352.132853 3.481635 C 366.757853 3.481635 368.085978 15.117053 365.763062 32.637887 L 402.705772 32.637887 L 403.705772 25.038928 C 408.356814 -11.523574 390.263063 -28.429824 353.320353 -28.429824 C 312.481809 -28.429824 292.627641 -5.872532 285.648474 46.648304 L 284.653683 54.00768 C 277.669307 106.528515 295.955767 128.7056 336.79431 128.7056 C 370.841187 128.7056 392.783896 114.507682 397.101605 75.236847 L 397.294313 73.47643 L 360.29952 73.47643 C 358.591186 87.106639 352.940144 96.841015 339.877644 96.841015 L 337.742227 96.841015 C 320.268268 96.841015 318.700559 80.507681 322.216184 54.00768 Z M 512.044319 126.002475 L 516.127652 94.085806 L 462.606816 94.085806 L 478.372442 -25.721491 L 441.429732 -25.721491 L 421.580773 126.002475 Z M 633.612033 -37.403783 L 598.565156 -37.403783 L 529.518278 149.361851 L 564.325571 149.361851 Z M 750.872455 32.637887 L 654.617242 -5.492323 L 650.106825 29.934762 L 705.57037 50.163929 L 644.690159 70.393097 L 639.992242 105.768099 L 746.221413 67.637889 Z M 750.872455 32.637887 " stroke="rgb(0%, 0%, 0%)" stroke-width="5.59226" stroke-opacity="1" stroke-miterlimit="4"/></svg>